<svg width="159" height="47" viewBox="0 0 159 47" fill="none" xmlns="http://www.w3.org/2000/svg">
<g clip-path="url(#clip0_1_273)">
<path d="M48.7939 29.4302C48.3379 29.5464 47.7679 29.6627 47.1978 29.6627C46.0578 29.6627 45.6018 28.965 45.6018 27.8023V22.5699H48.7939C49.5919 22.5699 50.39 21.9885 50.39 21.0583C50.39 20.1281 49.706 19.5467 48.7939 19.5467H45.6018V17.8025C45.6018 16.7561 44.8037 16.0584 43.8917 16.0584C42.9797 16.0584 42.1816 16.8723 42.1816 17.8025V27.9186C42.1816 30.8255 43.5497 32.9184 46.7418 32.9184C47.6539 32.9184 48.9079 32.8022 49.82 32.3371C50.618 31.9882 50.846 31.4068 50.846 30.8255C50.846 30.0115 50.048 29.1976 48.7939 29.4302ZM60.1944 19.0816C59.7384 18.9653 58.8263 18.849 58.0283 18.849C55.1782 18.849 53.5821 20.5932 53.5821 23.2675V31.1743C53.5821 32.1045 54.3801 32.9184 55.2922 32.9184C56.2042 32.9184 57.0023 32.1045 57.0023 31.1743V23.9652C57.0023 22.8024 57.4583 22.3373 58.2563 22.3373C59.0543 22.3373 59.5104 22.5699 60.1944 22.5699C61.2204 22.5699 61.7905 21.6397 61.7905 20.942C61.6764 20.0118 61.2204 19.4304 60.1944 19.0816ZM69.6568 18.849C66.4646 18.849 64.1845 20.942 63.8425 24.314C63.8425 25.1279 63.7285 26.5233 63.8425 27.5697C64.0705 30.8255 66.3506 33.0347 69.7708 33.0347C71.3668 33.0347 72.8489 32.6859 73.7609 32.1045C74.445 31.6394 74.559 31.1743 74.559 30.7092C74.559 29.779 73.7609 28.8488 72.3929 29.3139C71.5949 29.6627 70.6828 29.8953 69.7708 29.8953C68.1747 29.8953 66.9207 29.0813 66.9207 27.4535V27.1046H73.4189C74.559 27.1046 75.129 26.407 75.129 25.3605V24.7791C75.243 21.1746 72.9629 18.849 69.6568 18.849ZM71.8229 24.7791H67.0347C67.0347 23.035 67.8327 21.8722 69.6568 21.8722C71.2528 21.8722 72.1649 22.9187 72.0509 24.4303C72.0509 24.6628 72.0509 24.7791 71.8229 24.7791ZM83.3373 18.849C80.1452 18.849 77.8651 20.942 77.5231 24.314C77.5231 25.1279 77.4091 26.5233 77.5231 27.5697C77.7511 30.8255 80.0312 33.0347 83.4513 33.0347C85.0474 33.0347 86.5295 32.6859 87.4415 32.1045C88.1255 31.6394 88.2395 31.1743 88.2395 30.7092C88.2395 29.779 87.4415 28.8488 86.0735 29.3139C85.2754 29.6627 84.3634 29.8953 83.4513 29.8953C81.8553 29.8953 80.6012 29.0813 80.6012 27.4535V27.1046H87.0995C88.2395 27.1046 88.8096 26.407 88.8096 25.3605V24.7791C88.9236 21.1746 86.6435 18.849 83.3373 18.849ZM85.5034 24.7791H80.7152C80.7152 23.035 81.5133 21.8722 83.3373 21.8722C84.9334 21.8722 85.8454 22.9187 85.7314 24.4303C85.7314 24.6628 85.7314 24.7791 85.5034 24.7791ZM140.91 24.6628L139.086 24.1977C137.946 23.9652 137.604 23.6163 137.604 23.035C137.604 22.4536 138.174 21.9885 139.428 21.9885C140.112 21.9885 140.91 22.221 141.594 22.5699C142.392 23.035 143.304 22.9187 143.76 22.3373C144.33 21.7559 144.33 20.7094 143.646 20.0118C142.734 19.3141 141.138 18.849 139.542 18.849C136.578 18.849 134.411 20.3606 134.411 23.1512C134.411 25.3605 136.008 26.5233 138.06 27.1046C139.086 27.3372 138.972 27.3372 139.884 27.5697C140.91 27.8023 141.366 28.2674 141.366 28.7325C141.366 29.4302 140.796 29.8953 139.428 29.8953C138.288 29.8953 137.262 29.5464 136.464 29.0813C135.665 28.4999 134.753 28.7325 134.297 29.4302C133.841 30.1278 133.955 31.058 134.639 31.5231C135.551 32.3371 137.034 33.0347 139.428 33.0347C142.392 33.0347 144.672 31.4068 144.672 28.6162C144.672 26.5232 143.418 25.2442 140.91 24.6628ZM156.756 27.1046C157.896 27.1046 158.466 26.407 158.466 25.3605V24.7791C158.466 21.1746 156.186 18.849 152.88 18.849C149.688 18.849 147.408 20.942 147.066 24.314C147.066 25.1279 146.952 26.5233 147.066 27.5697C147.294 30.8255 149.574 33.0347 152.994 33.0347C154.59 33.0347 156.072 32.6859 156.984 32.1045C157.668 31.6394 157.782 31.1743 157.782 30.7092C157.782 29.779 156.984 28.8488 155.616 29.3139C154.818 29.6627 153.906 29.8953 152.994 29.8953C151.398 29.8953 150.144 29.0813 150.144 27.4535V27.1046H156.756ZM152.88 21.8722C154.476 21.8722 155.388 22.9187 155.274 24.4303C155.274 24.6628 155.16 24.7791 155.046 24.7791H150.258C150.258 23.035 151.17 21.8722 152.88 21.8722ZM111.154 18.849C107.734 18.849 105.226 21.0583 104.884 24.0815C104.77 25.1279 104.77 26.7558 104.884 27.8023C105.112 30.8255 107.734 33.0347 111.154 33.0347C114.575 33.0347 117.083 30.8255 117.311 27.8023C117.425 26.7558 117.425 25.2442 117.311 24.1977C117.083 21.0583 114.575 18.849 111.154 18.849ZM113.891 27.2209C113.777 28.7325 112.751 29.6627 111.154 29.6627C109.558 29.6627 108.532 28.6162 108.418 27.2209C108.418 26.5233 108.418 25.3605 108.418 24.6628C108.532 23.1512 109.558 22.221 111.154 22.221C112.751 22.221 113.777 23.2675 113.891 24.6628C114.005 25.3605 114.005 26.5233 113.891 27.2209ZM97.5879 18.849C96.3339 18.849 94.9658 19.3141 94.5098 19.8955V16.1747C94.5098 15.1282 93.8258 14.4305 92.9137 14.4305C92.0017 14.4305 91.3177 15.2445 91.3177 16.1747V31.1743C91.3177 32.1045 92.1157 32.9184 93.0277 32.9184C93.9398 32.9184 94.6238 32.1045 94.6238 31.1743V23.3838C95.1938 22.8024 96.1059 22.3373 97.2459 22.3373C98.614 22.3373 99.412 23.1512 99.412 24.7791V31.1743C99.412 32.2208 100.096 33.0347 101.008 33.0347C102.034 33.0347 102.718 32.2208 102.718 31.1743V24.5466C102.604 20.8257 100.78 18.849 97.5879 18.849ZM129.509 18.9653C128.597 18.9653 127.799 19.7792 127.799 20.7094V28.965C127.229 29.3139 126.431 29.6627 125.405 29.6627C124.037 29.6627 123.011 28.8488 123.011 27.2209V20.7094C123.011 19.663 122.213 18.849 121.301 18.849C120.275 18.849 119.705 19.663 119.705 20.7094V27.3372C119.705 30.9417 121.757 32.9184 125.291 32.9184C127.913 32.9184 129.737 31.9882 130.535 31.4068C130.991 31.1743 131.105 30.8255 131.105 30.2441V20.7094C131.105 19.7792 130.421 18.9653 129.509 18.9653Z" fill="#111827"/>
<path d="M29.6412 11.7563C28.3872 11.0586 26.4491 12.2214 25.309 14.3143L23.143 18.0352C22.3449 19.5468 22.4589 21.4072 23.485 22.9188L23.599 23.035C24.625 24.4304 25.8791 25.8257 26.3351 26.2908C26.5631 26.5233 26.7911 26.8722 26.9051 27.3373C27.2471 28.6163 26.5631 30.0116 25.195 30.3604C23.941 30.7093 22.5729 30.0116 22.2309 28.6163C22.1169 28.2675 22.1169 27.9186 22.1169 27.6861C22.2309 27.1047 22.0029 26.2908 21.2049 25.3606C20.4068 24.5466 18.9248 26.1745 18.3548 27.8024V27.9186C17.8987 29.5465 17.5567 31.0581 17.6707 31.1744C17.6707 31.2906 17.7847 31.2906 17.7847 31.4069C18.4688 32.8022 18.0127 34.4301 16.6447 35.1278C15.2766 35.8254 13.6806 35.3603 12.9965 33.965C12.3125 32.5697 12.7685 30.9418 14.1366 30.2442C14.2506 30.2442 14.2506 30.1279 14.3646 30.1279C14.4786 30.1279 14.7066 29.4302 15.0486 28.5C15.2766 27.6861 15.3906 27.3373 15.5046 26.9884C15.6186 26.5233 15.8467 25.3606 15.7327 24.8955C15.6186 24.3141 15.0486 24.3141 14.4786 24.6629C14.1366 24.8955 13.4526 25.4768 13.2245 25.7094C12.6545 26.1745 12.1985 26.8722 11.9705 27.4535C11.8565 27.6861 11.6285 28.0349 11.4005 28.2675C10.3744 29.0814 8.89237 28.9651 7.98033 27.9186C7.1823 26.8722 7.2963 25.3606 8.32234 24.4304C8.66436 24.1978 9.00637 23.9653 9.34839 23.9653C9.91841 23.849 11.9705 22.5699 13.2245 21.6397C13.4526 21.5235 13.7946 21.1746 13.9086 21.0584C14.2506 20.5932 13.9086 20.2444 13.5666 20.2444C12.5405 20.3607 11.4005 20.477 11.1725 20.8258C11.0585 20.9421 10.9445 21.1746 10.7164 21.2909C9.80441 21.9886 8.43635 21.756 7.75232 20.8258C7.06829 19.8956 7.2963 18.5003 8.20834 17.8026C8.55035 17.4538 9.12038 17.3375 9.46239 17.3375C10.2604 17.3375 12.3125 17.8026 13.9086 17.4538L14.3646 17.3375C16.0747 16.9887 18.1268 15.4771 18.9248 13.9655C18.9248 13.9655 19.7228 12.5702 20.6349 10.8261C21.6609 9.08192 21.5469 7.10523 20.5208 6.52384L18.5828 5.36108C17.5567 4.7797 16.0747 4.7797 15.0486 5.36108L1.82408 13.0353C0.798033 13.6167 0 15.012 0 16.1748V31.0581C0 32.2209 0.798033 33.6162 1.82408 34.1975L15.0486 41.8718C16.0747 42.4531 17.6707 42.4531 18.5828 41.8718L31.8073 34.1975C32.8334 33.6162 33.6314 32.2209 33.6314 31.0581V16.1748C33.6314 15.012 32.8334 13.6167 31.8073 13.0353C31.8073 13.0353 30.8953 12.4539 29.6412 11.7563Z" fill="#111827"/>
</g>
<defs>
<clipPath id="clip0_1_273">
<rect width="158.407" height="47" fill="white"/>
</clipPath>
</defs>
</svg>
