<svg width="21" height="24" viewBox="0 0 21 24" fill="none" xmlns="http://www.w3.org/2000/svg">
<g clip-path="url(#clip0_1_300)">
<path d="M19.4995 1.50012H1.49481C0.669814 1.50012 -0.000498046 2.1798 -0.000498046 3.01418V20.986C-0.000498046 21.8204 0.669814 22.5001 1.49481 22.5001H19.4995C20.3245 22.5001 20.9995 21.8204 20.9995 20.986V3.01418C20.9995 2.1798 20.3245 1.50012 19.4995 1.50012ZM6.34637 19.5001H3.23387V9.47823H6.35106V19.5001H6.34637ZM4.79012 8.10948C3.79169 8.10948 2.98544 7.29855 2.98544 6.3048C2.98544 5.31105 3.79169 4.50011 4.79012 4.50011C5.78387 4.50011 6.59481 5.31105 6.59481 6.3048C6.59481 7.30324 5.78856 8.10948 4.79012 8.10948ZM18.0135 19.5001H14.901V14.6251C14.901 13.4626 14.8776 11.9673 13.2839 11.9673C11.662 11.9673 11.4136 13.2329 11.4136 14.5407V19.5001H8.30106V9.47823H11.287V10.847H11.3292C11.7464 10.0595 12.7636 9.2298 14.2776 9.2298C17.4276 9.2298 18.0135 11.3064 18.0135 14.0064V19.5001Z" fill="#9CA3AF"/>
</g>
<defs>
<clipPath id="clip0_1_300">
<path d="M0 0H21V24H0V0Z" fill="white"/>
</clipPath>
</defs>
</svg>
