<svg width="24" height="26" viewBox="0 0 24 26" fill="none" xmlns="http://www.w3.org/2000/svg">
<ellipse cx="12" cy="12.8134" rx="12" ry="12.8134" fill="white"/>
<rect x="5.24973" y="5.60589" width="12" height="14.4153" rx="5.9" fill="white"/>
<path fill-rule="evenodd" clip-rule="evenodd" d="M11.9828 20.0806C8.26354 20.0806 5.24849 16.8934 5.24849 12.9619C5.24849 9.0304 8.26354 5.84327 11.9828 5.84327C12.4364 5.84327 12.804 6.21096 12.804 6.66453L12.804 8.49453C12.804 8.94809 12.4364 9.31578 11.9828 9.31578C10.0778 9.31578 8.53352 10.9482 8.53351 12.9619C8.53351 14.9756 10.0778 16.6081 11.9828 16.6081C12.4364 16.6081 12.804 16.9757 12.804 17.4293L12.804 19.2593C12.804 19.7129 12.4364 20.0806 11.9828 20.0806Z" fill="black"/>
<path fill-rule="evenodd" clip-rule="evenodd" d="M17.2486 18.4139C17.2486 19.3344 16.5024 20.0806 15.582 20.0806C14.6615 20.0806 13.9153 19.3344 13.9153 18.4139L13.9153 18.1879C13.9153 17.2674 14.6615 16.5212 15.582 16.5212C16.5024 16.5212 17.2486 17.2674 17.2486 18.1879L17.2486 18.4139Z" fill="black"/>
<path fill-rule="evenodd" clip-rule="evenodd" d="M15.5819 14.1484C14.6614 14.1484 13.9152 13.4022 13.9152 12.4818L13.9152 7.27272C13.9152 6.35224 14.6614 5.60605 15.5819 5.60605C16.5024 5.60605 17.2486 6.35224 17.2486 7.27272L17.2486 12.4818C17.2486 13.4022 16.5024 14.1484 15.5819 14.1484Z" fill="black"/>
</svg>
