<svg width="14" height="16" viewBox="0 0 14 16" fill="none" xmlns="http://www.w3.org/2000/svg">
<path d="M14 16H0V0H14V16Z" stroke="#E5E7EB"/>
<path d="M3.85714 5.99997C3.85714 4.81604 4.81607 3.85711 6 3.85711C6.85446 3.85711 7.59107 4.35532 7.93661 5.08122C8.14018 5.50979 8.65179 5.69193 9.07768 5.48836C9.50357 5.28479 9.68839 4.77318 9.48482 4.34729C8.86607 3.0455 7.54018 2.14282 6 2.14282C3.87054 2.14282 2.14286 3.8705 2.14286 5.99997V7.28568H1.71429C0.76875 7.28568 0 8.05443 0 8.99997V14.1428C0 15.0884 0.76875 15.8571 1.71429 15.8571H10.2857C11.2312 15.8571 12 15.0884 12 14.1428V8.99997C12 8.05443 11.2312 7.28568 10.2857 7.28568H3.85714V5.99997Z" fill="#9CA3AF"/>
</svg>
