<svg width="108" height="47" viewBox="0 0 108 47" fill="none" xmlns="http://www.w3.org/2000/svg">
<g clip-path="url(#clip0_1_276)">
<path d="M45.7677 25.1157C45.7677 30.328 41.8166 34.1689 36.9676 34.1689C32.1186 34.1689 28.1675 30.328 28.1675 25.1157C28.1675 19.8666 32.1186 16.0625 36.9676 16.0625C41.8166 16.0625 45.7677 19.8666 45.7677 25.1157ZM41.9154 25.1157C41.9154 21.8585 39.6254 19.6299 36.9676 19.6299C34.3098 19.6299 32.0198 21.8585 32.0198 25.1157C32.0198 28.3403 34.3098 30.6015 36.9676 30.6015C39.6254 30.6015 41.9154 28.3362 41.9154 25.1157Z" fill="#111827"/>
<path d="M64.7523 25.1157C64.7523 30.328 60.8012 34.1689 55.9522 34.1689C51.1033 34.1689 47.1521 30.328 47.1521 25.1157C47.1521 19.8707 51.1033 16.0625 55.9522 16.0625C60.8012 16.0625 64.7523 19.8666 64.7523 25.1157ZM60.9001 25.1157C60.9001 21.8585 58.6101 19.6299 55.9522 19.6299C53.2944 19.6299 51.0044 21.8585 51.0044 25.1157C51.0044 28.3403 53.2944 30.6015 55.9522 30.6015C58.6101 30.6015 60.9001 28.3362 60.9001 25.1157Z" fill="#111827"/>
<path d="M82.9463 16.6094V32.8628C82.9463 39.5486 79.1256 42.2793 74.6089 42.2793C70.3572 42.2793 67.7982 39.3445 66.8332 36.9445L70.1871 35.5037C70.7843 36.9771 72.2477 38.716 74.605 38.716C77.4961 38.716 79.2878 36.8751 79.2878 33.4097V32.1077H79.1533C78.2911 33.2057 76.63 34.1649 74.5338 34.1649C70.1475 34.1649 66.1292 30.2219 66.1292 25.1484C66.1292 20.0381 70.1475 16.0625 74.5338 16.0625C76.626 16.0625 78.2872 17.0217 79.1533 18.087H79.2878V16.6135H82.9463V16.6094ZM79.5607 25.1484C79.5607 21.9606 77.5001 19.6299 74.8779 19.6299C72.22 19.6299 69.9933 21.9606 69.9933 25.1484C69.9933 28.3035 72.22 30.6015 74.8779 30.6015C77.5001 30.6015 79.5607 28.3035 79.5607 25.1484Z" fill="#111827"/>
<path d="M88.9773 7.08289V33.614H85.22V7.08289H88.9773Z" fill="#111827"/>
<path d="M103.62 28.0954L106.61 30.1526C105.645 31.6261 103.319 34.1649 99.3007 34.1649C94.3172 34.1649 90.5955 30.1893 90.5955 25.1117C90.5955 19.7279 94.3489 16.0585 98.8695 16.0585C103.422 16.0585 105.649 19.7973 106.376 21.8178L106.776 22.8463L95.0489 27.8587C95.9467 29.675 97.3429 30.6016 99.3007 30.6016C101.262 30.6016 102.623 29.6056 103.62 28.0954ZM94.4161 24.8382L102.255 21.479C101.824 20.3483 100.527 19.5606 99.0001 19.5606C97.0423 19.5606 94.3172 21.3443 94.4161 24.8382Z" fill="#111827"/>
<path d="M13.9448 22.7605V18.9197H26.4865C26.6091 19.5891 26.6724 20.3809 26.6724 21.2381C26.6724 24.1197 25.909 27.6831 23.449 30.2219C21.0561 32.7934 17.9988 34.1648 13.9488 34.1648C6.44199 34.1648 0.129639 27.8545 0.129639 20.1074C0.129639 12.3604 6.44199 6.05005 13.9488 6.05005C18.1017 6.05005 21.0601 7.73171 23.2829 9.92358L20.6567 12.6338C19.0627 11.091 16.9033 9.89093 13.9448 9.89093C8.46306 9.89093 4.17572 14.4502 4.17572 20.1074C4.17572 25.7647 8.46306 30.3239 13.9448 30.3239C17.5005 30.3239 19.5255 28.8504 20.8228 27.5116C21.8748 26.4259 22.567 24.8749 22.8399 22.7565L13.9448 22.7605Z" fill="#111827"/>
</g>
<defs>
<clipPath id="clip0_1_276">
<rect width="107.214" height="47" fill="white"/>
</clipPath>
</defs>
</svg>
