<svg width="80" height="46" viewBox="0 0 80 46" fill="none" xmlns="http://www.w3.org/2000/svg">
<g clip-path="url(#clip0_1_285)">
<path d="M70.1926 19.92C72.2678 17.7833 74.5673 18.4118 74.5673 20.4842C74.5673 22.5069 72.211 24.6904 69.3694 26.3828C69.094 26.5436 68.7676 26.7307 68.4382 26.8973C68.3275 26.3887 68.2651 25.8245 68.2651 25.1961C68.2651 23.4686 68.9776 21.1711 70.1926 19.92ZM59.1241 41.7315C56.3676 44.5698 52.8446 40.9511 56.9552 36.7186C57.8863 35.7598 59.4136 34.7046 61.0034 33.743C61.9089 36.058 61.1907 39.5948 59.1241 41.7315ZM41.5659 30.3669C39.451 30.3669 38.0827 27.7566 38.5057 24.5326C38.9201 21.3085 40.9726 18.6982 43.0847 18.6982C45.0406 18.6982 46.3578 20.9402 46.2074 23.834C46.1535 24.2519 46.1052 24.6553 46.0654 25.0441C45.509 28.0226 43.5616 30.3669 41.5659 30.3669ZM13.6489 29.2941C12.9591 30.0044 12.1159 30.3815 11.2614 30.3815C10.4637 30.3815 9.77389 30.0103 9.20328 29.4228C7.24733 27.4088 7.41766 22.466 9.93002 19.8703C10.6426 19.1367 11.5027 18.7099 12.3884 18.7099C13.1805 18.7099 13.876 19.0724 14.4466 19.6599C16.289 21.5569 16.3969 26.4647 13.6489 29.2941ZM79.0924 30.3493C79.0924 30.3493 78.3088 29.2211 78.0675 28.8995C77.9029 28.6891 77.6985 28.4319 77.1591 28.8118C75.9697 29.6332 74.6297 30.3844 72.9775 30.3844C71.7171 30.3844 70.6128 30.0541 69.7924 29.338C70.1359 29.1772 70.4964 28.9989 70.8654 28.7972C72.8157 27.7099 74.4424 26.3302 75.2259 25.5235C79.0214 21.6154 77.8319 15.7869 73.2075 15.7869C68.8385 15.7869 65.3865 20.1714 65.3865 25.0412C65.3865 25.7748 65.4717 26.8213 65.7783 27.9349C65.5199 28.0635 63.7911 28.9258 61.7159 30.1038C59.7656 28.5955 56.7224 29.2737 56.7224 29.2737C59.547 25.1464 63.7996 18.6982 64.1601 18.1662C64.4185 17.7862 64.3787 17.4092 64.1289 16.8129C63.8081 16.0967 63.4873 15.9652 63.0473 15.9652H54.2186C53.929 15.9652 53.7019 16.1026 53.6167 16.4417C53.5372 16.772 53.3499 17.9236 53.3187 18.3182C53.2789 18.7128 53.6394 18.9554 54.0142 18.9554H60.41L54.6245 27.476C54.5848 27.5082 54.545 27.5491 54.5138 27.6046C53.6763 28.8528 52.3847 30.6036 50.8347 30.6036C49.8723 30.6036 48.6828 29.8934 48.6828 27.5725C48.6828 25.2984 49.5742 20.4959 50.2243 16.7544C50.2953 16.351 50.1619 15.9564 49.5345 15.9564H47.9703C47.6098 15.9564 47.4054 16.1815 47.3514 16.4972C47.2578 17.0701 47.1641 17.6342 47.0704 18.175C46.2954 16.6521 45.0577 15.7898 43.2664 15.7898C41.6057 15.7898 39.9875 16.427 38.6646 17.7804C35.3602 21.1828 35.9876 26.7277 33.1374 29.6624C31.9082 30.9281 30.5144 30.5423 30.5144 28.0519C30.5144 25.2078 31.5704 22.0392 32.7854 19.0314C32.9955 18.4995 32.7684 18.0552 32.5441 17.7102C32.2233 17.2279 32.0984 16.9678 31.5193 16.9678C30.6194 16.9678 29.1801 17.5553 26.2987 17.5553C25.6884 17.5553 25.1007 17.5319 24.5755 17.491C24.6068 17.0467 24.6153 16.7486 24.6238 16.6375C24.6408 16.2195 24.4989 15.9535 24.0674 15.9535H22.5969C22.0632 15.9535 21.9326 16.2107 21.8701 16.6375C21.6203 18.4498 21.1434 25.1084 17.9014 28.4465C17.5267 28.8323 17.2996 28.9551 17.2996 28.9551C18.1058 27.327 18.543 25.1902 18.543 23.4978C18.543 18.7333 15.8036 15.784 12.3657 15.784C11.3154 15.784 10.2054 16.1318 9.16354 16.7983C9.64898 13.8957 10.0947 11.1802 10.2508 10.2624C10.3842 9.48781 10.1089 9.08444 9.91299 8.76291C9.58085 8.23384 9.28845 8 8.85127 8H3.77828C3.48872 8 3.27013 8.21046 3.19916 8.54076C3.114 8.92659 2.93231 9.9438 2.9096 10.4115C2.89257 10.8236 3.16794 10.9756 3.48872 10.9756H7.19907C6.60292 14.7229 5.4759 21.9866 5.13241 23.8076C4.70374 26.1285 3.09697 28.9726 0.397242 29.981C0.0594211 30.1097 -0.0796814 30.4253 0.045227 30.7966C0.170135 31.1678 0.632864 32.1353 0.771967 32.3838C0.913908 32.641 1.22618 32.8105 1.52426 32.7053C2.92664 32.1967 4.20979 31.3753 5.22609 30.3347C5.4759 30.0775 5.72004 29.7852 5.95283 29.4724C7.16501 32.2785 9.63195 33.3016 12.1613 33.3016C15.0172 33.3016 18.103 32.2785 20.2634 30.0454C22.7927 27.4497 23.8488 23.147 24.2945 20.0983C24.9219 20.186 25.6344 20.2591 26.3129 20.2591C28.0503 20.2591 29.5066 19.8791 29.5066 19.8791C29.5066 19.8791 27.755 24.667 27.755 28.198C27.755 32.1791 29.6031 33.3074 31.6527 33.3074C33.7591 33.3074 35.2382 31.6793 36.2942 29.6654C36.5696 30.2938 36.9755 31.045 37.5319 31.615C38.4858 32.5971 39.6696 33.3074 41.3757 33.3074C43.326 33.3074 45.0009 32.147 46.1904 30.3669C46.4004 31.1152 46.7297 31.7465 47.1754 32.2055C47.7773 32.8251 48.8816 33.3104 50.2669 33.3104C52.6459 33.3104 54.0255 31.4718 57.7273 31.4718C58.1958 31.4718 58.6187 31.5449 59.002 31.6822C57.3044 32.7462 55.6919 33.892 54.704 34.9063C51.6523 38.0486 51.5103 42.1846 53.5145 44.2483C55.9417 46.7474 59.4023 45.4964 61.5626 43.272C64.092 40.6676 64.8273 35.7452 63.3624 32.375C65.131 31.4162 66.61 30.706 66.9621 30.5364C68.0664 32.0915 69.8974 33.3104 72.9179 33.3104C75.0783 33.3104 77.2556 32.5211 78.9533 31.1999C79.2258 31.0129 79.2797 30.6241 79.0924 30.3493Z" fill="#111827"/>
</g>
<defs>
<clipPath id="clip0_1_285">
<rect width="79.2033" height="46" fill="white"/>
</clipPath>
</defs>
</svg>
