<svg width="18" height="20" viewBox="0 0 18 20" fill="none" xmlns="http://www.w3.org/2000/svg">
<path d="M6.22235 0.211914C6.52703 -0.0732286 6.99966 -0.0693225 7.30433 0.21582C8.3824 1.22749 9.39407 2.31728 10.3393 3.49691C10.769 2.93444 11.2573 2.32119 11.7846 1.82121C12.0932 1.53216 12.5697 1.53216 12.8783 1.82512C14.2298 3.11412 15.3742 4.81716 16.1789 6.43427C16.9718 8.02794 17.4991 9.65677 17.4991 10.8051C17.4991 15.7893 13.6009 20 8.74957 20C3.84356 20 0 15.7854 0 10.8012C0 9.30131 0.695279 7.46937 1.77335 5.65696C2.86314 3.81721 4.40213 1.89933 6.22235 0.211914ZM8.81598 16.2502C9.80421 16.2502 10.6792 15.9768 11.5033 15.4299C13.1478 14.2815 13.5892 11.9848 12.6009 10.1802C12.4252 9.82863 11.976 9.8052 11.7221 10.1021L10.7378 11.2465C10.48 11.5434 10.0151 11.5356 9.77296 11.227C9.12846 10.4067 7.97617 8.94196 7.31996 8.10997C7.07387 7.79748 6.60515 7.79357 6.35516 8.10606C5.03491 9.76613 4.37088 10.813 4.37088 11.9887C4.37479 14.6643 6.35125 16.2502 8.81598 16.2502Z" fill="#111827"/>
</svg>
