<svg width="135" height="47" viewBox="0 0 135 47" fill="none" xmlns="http://www.w3.org/2000/svg">
<g clip-path="url(#clip0_1_283)">
<path d="M20.2086 3.01489C9.08622 3.01489 0.0693359 12.2212 0.0693359 23.5775C0.0693359 34.9343 9.08622 44.1399 20.2086 44.1399C31.3322 44.1399 40.3481 34.9343 40.3481 23.5775C40.3481 12.2219 31.3322 3.01587 20.2083 3.01587L20.2086 3.01489ZM29.4443 32.6721C29.0836 33.2761 28.3092 33.4677 27.7176 33.0969C22.9891 30.1479 17.0365 29.48 10.0263 31.1153C9.35076 31.2725 8.67739 30.8403 8.52348 30.1503C8.36884 29.4603 8.79042 28.7728 9.46764 28.6157C17.1392 26.8261 23.7197 27.5966 29.0283 30.9091C29.6199 31.2798 29.8075 32.0681 29.4443 32.6721ZM31.9093 27.0731C31.4548 27.8274 30.488 28.0656 29.7497 27.6015C24.3363 24.2042 16.0844 23.2202 9.68143 25.2048C8.85102 25.4609 7.97396 24.983 7.72193 24.1366C7.47182 23.2888 7.94005 22.395 8.76902 22.1371C16.083 19.8712 25.1756 20.9688 31.3923 24.8693C32.1306 25.3334 32.3638 26.3205 31.9093 27.0734V27.0731ZM32.121 21.2429C25.6302 17.3065 14.9212 16.9445 8.72405 18.865C7.7289 19.1731 6.67652 18.5995 6.37495 17.5835C6.07338 16.5669 6.63468 15.4931 7.63054 15.1842C14.7444 12.9792 26.5705 13.4052 34.0434 17.9348C34.9404 18.4773 35.2338 19.6576 34.7024 20.5703C34.1733 21.4842 33.0141 21.7855 32.1219 21.2429H32.121ZM54.8616 21.9972C51.3841 21.1505 50.766 20.5563 50.766 19.3077C50.766 18.1281 51.8531 17.3342 53.4715 17.3342C55.0395 17.3342 56.5931 17.937 58.2236 19.178C58.2717 19.2156 58.3342 19.2306 58.3944 19.2208C58.4569 19.2114 58.5098 19.1773 58.5459 19.126L60.2437 16.6823C60.3135 16.5816 60.2942 16.4429 60.2004 16.366C58.2597 14.7766 56.076 14.0039 53.5221 14.0039C49.768 14.0039 47.1443 16.3044 47.1443 19.596C47.1443 23.1257 49.4073 24.3755 53.3176 25.3403C56.6436 26.1229 57.2063 26.7785 57.2063 27.9502C57.2063 29.2492 56.0712 30.057 54.2435 30.057C52.2138 30.057 50.5568 29.3572 48.7051 27.7219C48.6594 27.6801 48.5968 27.6629 48.5391 27.6654C48.4766 27.6703 48.4213 27.6998 48.3828 27.7464L46.4781 30.0595C46.3988 30.1577 46.4084 30.3001 46.4998 30.3836C48.6546 32.348 51.3047 33.3842 54.1666 33.3842C58.2116 33.3842 60.8257 31.1276 60.8257 27.6335C60.8329 24.6852 59.1038 23.0523 54.8688 22.0004L54.8616 21.9972ZM69.9787 18.4957C68.2255 18.4957 66.7874 19.2009 65.5994 20.6459V19.0194C65.5994 18.891 65.4984 18.7864 65.3733 18.7864H62.259C62.134 18.7864 62.033 18.891 62.033 19.0194V37.092C62.033 37.2196 62.134 37.3252 62.259 37.3252H65.3733C65.4984 37.3252 65.5994 37.2196 65.5994 37.092V31.3879C66.7874 32.7458 68.2255 33.4112 69.9787 33.4112C73.2373 33.4112 76.5368 30.8501 76.5368 25.9542C76.5416 21.0572 73.2421 18.4954 69.9811 18.4954L69.9787 18.4957ZM72.9151 25.9542C72.9151 28.4462 71.412 30.1872 69.2572 30.1872C67.1289 30.1872 65.5224 28.3677 65.5224 25.9542C65.5224 23.5404 67.1289 21.7214 69.2572 21.7214C71.3759 21.7212 72.9151 23.5009 72.9151 25.9539V25.9542ZM84.99 18.4957C80.7935 18.4957 77.506 21.7948 77.506 26.0075C77.506 30.1749 80.7718 33.4382 84.9395 33.4382C89.1505 33.4382 92.4476 30.1503 92.4476 25.9542C92.4476 21.7723 89.1721 18.4962 84.99 18.4962V18.4957ZM84.99 30.2117C82.7583 30.2117 81.0749 28.3799 81.0749 25.9529C81.0749 23.5149 82.7006 21.7457 84.9395 21.7457C87.1857 21.7457 88.8787 23.5768 88.8787 26.0062C88.8787 28.4438 87.2434 30.2117 84.99 30.2117ZM101.408 18.7864H97.9812V15.2098C97.9812 15.0816 97.8802 14.977 97.7552 14.977H94.6408C94.5158 14.977 94.4124 15.0816 94.4124 15.2098V18.7864H92.9165C92.7915 18.7864 92.6905 18.891 92.6905 19.0194V21.7516C92.6905 21.8798 92.7915 21.9846 92.9165 21.9846H94.4124V29.0552C94.4124 31.9109 95.8048 33.3596 98.5536 33.3596C99.6694 33.3596 100.595 33.1239 101.468 32.6181C101.54 32.5788 101.584 32.5002 101.584 32.4167V29.8139C101.584 29.7354 101.543 29.6592 101.476 29.6175C101.408 29.5733 101.324 29.5708 101.254 29.6077C100.655 29.9146 100.076 30.057 99.4266 30.057C98.4285 30.057 97.9812 29.5929 97.9812 28.5567V21.9859H101.408C101.533 21.9859 101.634 21.8813 101.634 21.7529V19.0209C101.639 18.8925 101.538 18.7879 101.411 18.7879L101.408 18.7864ZM113.346 18.8004V18.3611C113.346 17.0688 113.832 16.4925 114.919 16.4925C115.568 16.4925 116.09 16.6241 116.674 16.823C116.747 16.8461 116.821 16.8345 116.879 16.7906C116.939 16.7466 116.973 16.6762 116.973 16.6015V13.9226C116.973 13.8202 116.91 13.7296 116.811 13.6994C116.196 13.512 115.407 13.3198 114.224 13.3198C111.35 13.3198 109.828 14.9733 109.828 18.0998V18.7726H108.332C108.207 18.7726 108.103 18.8772 108.103 19.0054V21.7516C108.103 21.8798 108.207 21.9846 108.332 21.9846H109.828V32.8882C109.828 33.0183 109.931 33.1214 110.056 33.1214H113.168C113.296 33.1214 113.397 33.0183 113.397 32.8882V21.9854H116.304L120.758 32.8882C120.253 34.0324 119.755 34.2608 119.077 34.2608C118.529 34.2608 117.949 34.0938 117.36 33.7623C117.304 33.7329 117.237 33.728 117.179 33.7451C117.119 33.7672 117.069 33.8114 117.045 33.8704L115.989 36.235C115.939 36.3479 115.982 36.4781 116.088 36.537C117.189 37.146 118.182 37.4062 119.411 37.4062C121.71 37.4062 122.982 36.3111 124.101 33.3695L129.502 19.1186C129.531 19.0469 129.521 18.9659 129.478 18.9023C129.437 18.8392 129.367 18.8011 129.293 18.8011H126.051C125.952 18.8011 125.866 18.8642 125.835 18.9573L122.513 28.6402L118.877 18.9509C118.844 18.8608 118.759 18.8011 118.666 18.8011H113.346V18.8004ZM106.425 18.7864H103.31C103.185 18.7864 103.082 18.891 103.082 19.0194V32.8882C103.082 33.0183 103.185 33.1214 103.31 33.1214H106.425C106.55 33.1214 106.653 33.0183 106.653 32.8882V19.0204C106.653 18.892 106.552 18.7874 106.425 18.7874V18.7864ZM104.886 12.4712C103.652 12.4712 102.652 13.4907 102.652 14.7501C102.652 16.0102 103.652 17.031 104.886 17.031C106.119 17.031 107.117 16.0102 107.117 14.7501C107.117 13.4909 106.117 12.4712 104.886 12.4712ZM132.162 23.2458C130.931 23.2458 129.971 22.2354 129.971 21.0084C129.971 19.7814 130.943 18.7594 132.174 18.7594C133.405 18.7594 134.365 19.7696 134.365 20.9956C134.365 22.2226 133.393 23.2458 132.162 23.2458ZM132.174 18.9819C131.051 18.9819 130.202 19.8928 130.202 21.0084C130.202 22.1234 131.046 23.0221 132.162 23.0221C133.285 23.0221 134.134 22.1118 134.134 20.9956C134.134 19.8806 133.29 18.9819 132.174 18.9819ZM132.66 21.2257L133.28 22.1116H132.756L132.198 21.2988H131.719V22.1116H131.282V19.7632H132.306C132.842 19.7632 133.194 20.0424 133.194 20.5123C133.196 20.8974 132.977 21.1326 132.662 21.2257H132.66ZM132.289 20.1661H131.719V20.9089H132.289C132.573 20.9089 132.744 20.7667 132.744 20.5371C132.744 20.2955 132.573 20.1661 132.289 20.1661Z" fill="#111827"/>
</g>
<defs>
<clipPath id="clip0_1_283">
<rect width="134.259" height="47" fill="white"/>
</clipPath>
</defs>
</svg>
