<svg width="21" height="24" viewBox="0 0 21 24" fill="none" xmlns="http://www.w3.org/2000/svg">
<g clip-path="url(#clip0_1_297)">
<path d="M10.505 6.60922C7.52371 6.60922 5.11902 9.01391 5.11902 11.9952C5.11902 14.9764 7.52371 17.3811 10.505 17.3811C13.4862 17.3811 15.8909 14.9764 15.8909 11.9952C15.8909 9.01391 13.4862 6.60922 10.505 6.60922ZM10.505 15.4967C8.57839 15.4967 7.0034 13.9264 7.0034 11.9952C7.0034 10.0639 8.57371 8.49359 10.505 8.49359C12.4362 8.49359 14.0065 10.0639 14.0065 11.9952C14.0065 13.9264 12.4315 15.4967 10.505 15.4967ZM17.3674 6.38891C17.3674 7.08735 16.8049 7.64516 16.1112 7.64516C15.4128 7.64516 14.855 7.08266 14.855 6.38891C14.855 5.69516 15.4175 5.13266 16.1112 5.13266C16.8049 5.13266 17.3674 5.69516 17.3674 6.38891ZM20.9346 7.66391C20.8549 5.9811 20.4706 4.49047 19.2378 3.26235C18.0096 2.03423 16.519 1.64985 14.8362 1.56548C13.1018 1.46704 7.90339 1.46704 6.16902 1.56548C4.4909 1.64516 3.00028 2.02954 1.76746 3.25766C0.534653 4.48579 0.154966 5.97641 0.0705907 7.65922C-0.0278466 9.39359 -0.0278466 14.592 0.0705907 16.3264C0.150278 18.0092 0.534653 19.4998 1.76746 20.728C3.00028 21.9561 4.48621 22.3405 6.16902 22.4248C7.90339 22.5233 13.1018 22.5233 14.8362 22.4248C16.519 22.3451 18.0096 21.9608 19.2378 20.728C20.4659 19.4998 20.8503 18.0092 20.9346 16.3264C21.0331 14.592 21.0331 9.39828 20.9346 7.66391ZM18.694 18.1873C18.3284 19.1061 17.6206 19.8139 16.6971 20.1842C15.3143 20.7326 12.0331 20.6061 10.505 20.6061C8.97683 20.6061 5.6909 20.728 4.31277 20.1842C3.39402 19.8186 2.68621 19.1108 2.3159 18.1873C1.76746 16.8045 1.89403 13.5233 1.89403 11.9952C1.89403 10.467 1.77215 7.1811 2.3159 5.80297C2.68153 4.88422 3.38934 4.17641 4.31277 3.8061C5.69558 3.25766 8.97683 3.38422 10.505 3.38422C12.0331 3.38422 15.319 3.26235 16.6971 3.8061C17.6159 4.17172 18.3237 4.87954 18.694 5.80297C19.2424 7.18578 19.1159 10.467 19.1159 11.9952C19.1159 13.5233 19.2424 16.8092 18.694 18.1873Z" fill="#9CA3AF"/>
</g>
<defs>
<clipPath id="clip0_1_297">
<path d="M0 0H21V24H0V0Z" fill="white"/>
</clipPath>
</defs>
</svg>
